#!OML:ASF X:\für Bonn\!DataBase\2005_08_12_Daniel\c3d\Daniel.ASF
:FULLY-SPECIFIED
:DEGREES
91
root 0.737389 15.6026 1.47576 171.642 -4.58838 -179.959
lowerback 53.4479 0.390902 8.01204
upperback 12.3013 -2.26092 -1.34554
thorax -7.15073 -3.52857 -3.819
lowerneck 5.34819 -2.29416 -3.30555
upperneck 9.20375 -4.17035 5.75924
head 2.21994 -2.29697 2.40606
rclavicle -1.02623e-014 4.02539e-015
rhumerus -1.30058 17.7201 -77.619
rradius 62.0138
rwrist -42.9588
rhand -19.3678 9.29944
rfingers 7.12502
rthumb 6.95015 -20.5665
lclavicle -1.02623e-014 4.02539e-015
lhumerus -25.4358 18.4308 84.1684
lradius 40.6638
lwrist -12.2699
lhand -12.2703 -7.54643
lfingers 7.12502
lthumb 13.7965 21.9761
rfemur -32.9449 -8.97739 16.4989
rtibia 66.3149
rfoot -24.0398 6.49441
rtoes -9.83238
lfemur -33.5762 4.49656 -16.524
ltibia 71.7283
lfoot -29.2809 -4.12506
ltoes -9.34038
92
root 0.730794 15.4876 1.47774 171.602 -4.83499 -180.047
lowerback 54.0593 0.314872 8.25277
upperback 12.3328 -2.27833 -1.3372
thorax -7.16157 -3.56596 -3.89048
lowerneck 5.25682 -2.51578 -3.32321
upperneck 9.16465 -4.4624 5.87586
head 2.24308 -2.4338 2.44549
rclavicle 3.926e-015 1.30701e-014
rhumerus -0.575821 17.5146 -76.8344
rradius 61.3956
rwrist -42.8477
rhand -19.2331 9.06905
rfingers 7.12502
rthumb 7.08018 -20.7925
lclavicle 3.926e-015 1.30701e-014
lhumerus -25.2429 17.8443 84.3895
lradius 41.2002
lwrist -11.8081
lhand -12.483 -7.49118
lfingers 7.12502
lthumb 13.5915 22.0452
rfemur -33.9797 -9.33584 16.2689
rtibia 68.1165
rfoot -24.5351 6.74212
rtoes -9.75979
lfemur -34.5366 4.62028 -16.6461
ltibia 73.3043
lfoot -29.7899 -4.47128
ltoes -9.25904
93
root 0.723318 15.359 1.47835 171.548 -5.08177 -180.137
lowerback 54.6565 0.22931 8.50859
upperback 12.3805 -2.30342 -1.32105
thorax -7.14786 -3.60844 -3.95752
lowerneck 5.11104 -2.73864 -3.45598
upperneck 9.14841 -4.76508 6.07074
head 2.29082 -2.57675 2.53123
rclavicle 1.45113e-014 1.07344e-014
rhumerus 0.150942 17.3216 -76.0157
rradius 60.7734
rwrist -42.7287
rhand -19.0341 8.86467
rfingers 7.12502
rthumb 7.27223 -20.9904
lclavicle 1.45113e-014 1.07344e-014
lhumerus -24.9992 17.3818 84.6183
lradius 41.6808
lwrist -11.4288
lhand -12.6104 -7.54592
lfingers 7.12502
lthumb 13.4687 21.9986
rfemur -35.0565 -9.69504 16.0224
rtibia 69.9787
rfoot -24.9782 6.99294
rtoes -9.69251
lfemur -35.5372 4.77112 -16.7699
ltibia 74.9406
lfoot -30.3082 -4.82535
ltoes -9.24054
94
root 0.718584 15.2394 1.47875 171.489 -5.32907 -180.227
lowerback 55.2578 0.156043 8.75952
upperback 12.4242 -2.31104 -1.30498
thorax -7.13328 -3.64229 -4.02906
lowerneck 4.86673 -2.97182 -3.48573
upperneck 9.24055 -5.08081 6.18574
head 2.38798 -2.72271 2.56881
rclavicle -3.08116e-015 -1.73937e-014
rhumerus 0.82146 17.0245 -75.2512
rradius 60.1747
rwrist -42.4676
rhand -18.8338 8.57444
rfingers 7.12502
rthumb 7.4656 -21.2738
lclavicle -3.08116e-015 -1.73937e-014
lhumerus -24.7618 16.8343 84.8302
lradius 42.1599
lwrist -11.0918
lhand -12.7923 -7.55287
lfingers 7.12502
lthumb 13.2934 22.0032
rfemur -36.0844 -10.0373 15.78
rtibia 71.7965
rfoot -25.4009 7.2395
rtoes -9.48323
lfemur -36.4842 4.93066 -16.884
ltibia 76.5181
lfoot -30.8117 -5.18953
ltoes -9.17103
95
root 0.713529 15.1175 1.47913 171.424 -5.59623 -180.314
lowerback 55.8498 0.0584832 9.02554
upperback 12.4547 -2.32773 -1.28087
thorax -7.12812 -3.6784 -4.0936
lowerneck 4.69899 -3.20586 -3.61146
upperneck 9.25867 -5.40162 6.37593
head 2.45436 -2.8739 2.65009
rclavicle 0 -2.0773e-014
rhumerus 1.41753 16.7326 -74.4788
rradius 59.6078
rwrist -42.1937
rhand -18.5753 8.31434
rfingers 7.12502
rthumb 7.71512 -21.5249
lclavicle 0 -2.0773e-014
lhumerus -24.5641 16.3067 85.0215
lradius 42.6339
lwrist -10.7708
lhand -12.8329 -7.64222
lfingers 7.12502
lthumb 13.2543 21.9164
rfemur -37.1096 -10.395 15.5314
rtibia 73.6134
rfoot -25.7978 7.48817
rtoes -9.31895
lfemur -37.4378 5.07778 -16.9912
ltibia 78.1024
lfoot -31.2928 -5.58577
ltoes -9.07715
96
root 0.710383 14.9935 1.47757 171.327 -5.85371 -180.4
lowerback 56.4647 -0.0224724 9.25892
upperback 12.4844 -2.34271 -1.23398
thorax -7.12087 -3.71885 -4.11741
lowerneck 4.52818 -3.43187 -3.73134
upperneck 9.33143 -5.71375 6.50198
head 2.53772 -3.02229 2.70788
rclavicle 2.96189e-014 -2.38542e-015
rhumerus 2.06147 16.4873 -73.6885
rradius 58.9962
rwrist -41.9083
rhand -18.3004 8.06377
rfingers 7.12502
rthumb 7.98044 -21.7656
lclavicle 2.96189e-014 -2.38542e-015
lhumerus -24.3569 15.8215 85.2257
lradius 43.1045
lwrist -10.4259
lhand -12.8716 -7.72419
lfingers 7.12502
lthumb 13.217 21.8368
rfemur -38.1048 -10.7358 15.2908
rtibia 75.4336
rfoot -26.1779 7.67988
rtoes -9.29592
lfemur -38.3316 5.23302 -17.0747
ltibia 79.6605
lfoot -31.7674 -6.01712
ltoes -8.99397
97
root 0.707853 14.8674 1.47481 171.233 -6.11278 -180.489
lowerback 57.0852 -0.112364 9.4953
upperback 12.4799 -2.34612 -1.20167
thorax -7.14825 -3.74891 -4.16104
lowerneck 4.50429 -3.65215 -3.8015
upperneck 9.33159 -6.01967 6.64931
head 2.57013 -3.16955 2.76627
rclavicle -7.55382e-015 6.16232e-015
rhumerus 2.60882 16.2364 -72.9234
rradius 58.4066
rwrist -41.626
rhand -18.0552 7.7985
rfingers 7.12502
rthumb 8.21706 -22.0217
lclavicle -7.55382e-015 6.16232e-015
lhumerus -24.2227 15.2814 85.3941
lradius 43.58
lwrist -10.1059
lhand -12.8746 -7.86684
lfingers 7.12502
lthumb 13.2141 21.6944
rfemur -39.1039 -11.0663 15.0369
rtibia 77.2615
rfoot -26.5521 7.89612
rtoes -9.22785
lfemur -39.2349 5.41548 -17.1657
ltibia 81.2169
lfoot -32.2349 -6.43734
ltoes -8.85278
98
root 0.705545 14.7381 1.47177 171.123 -6.38197 -180.576
lowerback 57.6886 -0.222065 9.75691
upperback 12.4891 -2.36181 -1.174
thorax -7.15468 -3.78424 -4.21619
lowerneck 4.46813 -3.87488 -3.85101
upperneck 9.35552 -6.32767 6.75795
head 2.61116 -3.31756 2.80701
rclavicle -2.38542e-014 1.64991e-014
rhumerus 3.16297 15.9584 -72.1763
rradius 57.7778
rwrist -41.287
rhand -17.789 7.61576
rfingers 7.12502
rthumb 8.47394 -22.1942
lclavicle -2.38542e-014 1.64991e-014
lhumerus -24.08 14.7204 85.5454
lradius 44.0734
lwrist -9.72359
lhand -12.8161 -7.96019
lfingers 7.12502
lthumb 13.2704 21.5973
rfemur -40.1024 -11.4002 14.7672
rtibia 79.1115
rfoot -26.8734 8.12736
rtoes -9.17438
lfemur -40.1328 5.59848 -17.2429
ltibia 82.7822
lfoot -32.7162 -6.89694
ltoes -8.76187
99
root 0.704784 14.6091 1.46862 170.97 -6.65916 -180.659
lowerback 58.3371 -0.329931 10.0083
upperback 12.4885 -2.37695 -1.13054
thorax -7.16933 -3.82365 -4.24635
lowerneck 4.5282 -4.08562 -3.92132
upperneck 9.30505 -6.61987 6.90849
head 2.61233 -3.45991 2.86832
rclavicle -3.97569e-016 -7.15625e-015
rhumerus 3.76165 15.6965 -71.4253
rradius 57.0906
rwrist -40.9836
rhand -17.5328 7.45524
rfingers 7.12502
rthumb 8.72123 -22.3446
lclavicle -3.97569e-016 -7.15625e-015
lhumerus -24.0065 14.1021 85.6839
lradius 44.6438
lwrist -9.31849
lhand -12.7624 -8.04563
lfingers 7.12502
lthumb 13.3222 21.5085
rfemur -41.0468 -11.7591 14.4994
rtibia 80.9534
rfoot -27.2017 8.33794
rtoes -9.39998
lfemur -40.9751 5.80377 -17.3042
ltibia 84.3268
lfoot -33.1521 -7.37528
ltoes -8.59982
100
root 0.704446 14.4782 1.46463 170.818 -6.93938 -180.765
lowerback 59.001 -0.439193 10.2216
upperback 12.4471 -2.39233 -1.07677
thorax -7.228 -3.86215 -4.24448
lowerneck 4.65717 -4.28022 -3.97774
upperneck 9.27606 -6.89337 7.00058
head 2.60443 -3.59654 2.90891
rclavicle -2.78299e-015 3.97569e-015
rhumerus 4.27483 15.4697 -70.6738
rradius 56.4102
rwrist -40.6579
rhand -17.2764 7.38137
rfingers 7.12502
rthumb 8.96862 -22.408
lclavicle -2.78299e-015 3.97569e-015
lhumerus -24.0306 13.5043 85.8202
lradius 45.2526
lwrist -8.89585
lhand -12.6626 -8.15399
lfingers 7.12502
lthumb 13.4184 21.3938
rfemur -42.0035 -12.1185 14.1925
rtibia 82.8029
rfoot -27.4621 8.55673
rtoes -9.49211
lfemur -41.8151 6.00848 -17.3896
ltibia 85.869
lfoot -33.572 -7.82792
ltoes -8.45675
101
root 0.703927 14.3447 1.46119 170.655 -7.21934 -180.863
lowerback 59.6304 -0.548593 10.4384
upperback 12.4423 -2.42091 -1.01953
thorax -7.23964 -3.90927 -4.23707
lowerneck 4.768 -4.46333 -3.96795
upperneck 9.20186 -7.13783 7.05055
head 2.57791 -3.71607 2.92321
rclavicle 3.02153e-014 2.78299e-014
rhumerus 4.84941 15.2674 -69.9039
rradius 55.7146
rwrist -40.3045
rhand -17 7.33214
rfingers 7.12502
rthumb 9.23533 -22.4456
lclavicle 3.02153e-014 2.78299e-014
lhumerus -24.0217 12.9753 85.9304
lradius 45.8368
lwrist -8.58027
lhand -12.5421 -8.19384
lfingers 7.12502
lthumb 13.5345 21.3463
rfemur -42.9707 -12.4649 13.886
rtibia 84.6666
rfoot -27.6745 8.77891
rtoes -9.551
lfemur -42.6558 6.22524 -17.4558
ltibia 87.4112
lfoot -33.9716 -8.34075
ltoes -8.22273
